<?xml version="1.0" encoding="utf-8"?>
<!-- Generator: Adobe Illustrator 26.0.1, SVG Export Plug-In . SVG Version: 6.00 Build 0)  -->
<svg  fill="#2F2E41" version="1.1" id="Layer_1" xmlns="http://www.w3.org/2000/svg" xmlns:xlink="http://www.w3.org/1999/xlink" x="0px" y="0px"
	 viewBox="0 0 512 512" style="enable-background:new 0 0 512 512;" xml:space="preserve">
<style type="text/css">
	.st0{fill:#F9F9F9;}
</style>
<circle cx="256" cy="256" r="256"/>
<g>
	<path class="st0" d="M230.6,122.2h50.9v8.6h18.4V121c0-9.5-7.7-17.2-17.2-17.2h-53.3c-9.5,0-17.2,7.7-17.2,17.2v9.8h18.4V122.2z"/>
	<path class="st0" d="M342.2,203.5H169.8c-4.7,0-8.4,4-8.1,8.7l14.4,178.3c0.8,10,9.1,17.6,19.1,17.6h121.6c10,0,18.3-7.7,19.1-17.6
		l14.4-178.3C350.7,207.6,347,203.5,342.2,203.5z M211.5,389.2c-0.2,0-0.4,0-0.6,0c-4.8,0-8.9-3.8-9.2-8.6l-9-146.4
		c-0.3-5.1,3.5-9.4,8.6-9.7c5-0.3,9.4,3.5,9.7,8.6l9,146.4C220.4,384.5,216.6,388.9,211.5,389.2z M265.3,380c0,5.1-4.1,9.2-9.2,9.2
		s-9.2-4.1-9.2-9.2V233.6c0-5.1,4.1-9.2,9.2-9.2c5.1,0,9.2,4.1,9.2,9.2V380z M319.2,234.2l-8.6,146.4c-0.3,4.9-4.3,8.6-9.2,8.6
		c-0.2,0-0.4,0-0.5,0c-5.1-0.3-8.9-4.6-8.6-9.7l8.6-146.4c0.3-5.1,4.6-8.9,9.7-8.6C315.7,224.8,319.5,229.1,319.2,234.2z"/>
	<path class="st0" d="M374,175.2l-6-18.1c-1.6-4.8-6.1-8-11.1-8H155.1c-5,0-9.5,3.2-11.1,8l-6,18.1c-1.2,3.5,0.4,7,3.2,8.8
		c1.2,0.7,2.5,1.2,4,1.2h221.6c1.5,0,2.9-0.4,4-1.2C373.7,182.2,375.2,178.7,374,175.2z"/>
</g>
</svg>
